<svg width="20" height="21" viewBox="0 0 20 21" fill="none" xmlns="http://www.w3.org/2000/svg">
<g clip-path="url(#clip0_613_104)">
<path d="M6.2918 19.1202C13.8371 19.1202 17.9652 12.8675 17.9652 7.44679C17.9652 7.27101 17.9613 7.09132 17.9535 6.91554C18.7566 6.33479 19.4496 5.61545 20 4.79132C19.2521 5.12407 18.458 5.34139 17.6449 5.43585C18.5011 4.92266 19.1421 4.11647 19.4492 3.16671C18.6438 3.64404 17.763 3.98075 16.8445 4.16241C16.2257 3.50487 15.4075 3.0695 14.5164 2.92362C13.6253 2.77773 12.711 2.92945 11.9148 3.35532C11.1186 3.78119 10.4848 4.45749 10.1115 5.27967C9.73825 6.10184 9.64619 7.02409 9.84961 7.90382C8.21874 7.82198 6.62328 7.39833 5.16665 6.66032C3.71002 5.92232 2.42474 4.88644 1.39414 3.61984C0.870333 4.52294 0.710047 5.59161 0.945859 6.60865C1.18167 7.62569 1.79589 8.51478 2.66367 9.09523C2.01219 9.07454 1.37498 8.89914 0.804688 8.58351V8.63429C0.804104 9.58203 1.13175 10.5007 1.73192 11.2342C2.3321 11.9677 3.16777 12.4707 4.09687 12.6577C3.49338 12.8228 2.85999 12.8469 2.2457 12.728C2.50788 13.5431 3.01798 14.256 3.70481 14.7672C4.39164 15.2784 5.22093 15.5624 6.07695 15.5796C4.62369 16.7212 2.82848 17.3403 0.980469 17.3374C0.652739 17.3369 0.325333 17.3168 0 17.2773C1.87738 18.4817 4.06128 19.1214 6.2918 19.1202Z" fill="#4a4d59"/>
</g>
<defs>
<clipPath id="clip0_613_104">
<rect width="20" height="20" fill="white" transform="translate(0 0.995117)"/>
</clipPath>
</defs>
</svg>
