<svg width="18" height="14" viewBox="0 0 18 14" fill="none" xmlns="http://www.w3.org/2000/svg">
<path d="M17.797 12.4414C17.5191 12.2482 17.2746 12.0111 17.0729 11.7393C16.5902 11.1908 15.9759 10.5106 14.835 10.5106C13.694 10.5106 13.1016 11.1688 12.597 11.7612C12.0923 12.3536 11.7632 12.7047 11.0172 12.7047C10.2712 12.7047 9.89822 12.2878 9.43748 11.7612C8.97673 11.2346 8.36236 10.5106 7.19948 10.5106C6.0366 10.5106 5.46616 11.1688 4.96149 11.7612C4.45686 12.3536 4.12773 12.7047 3.38175 12.7047C2.63576 12.7047 2.26275 12.2878 1.802 11.7612C1.48879 11.3476 1.09273 11.0038 0.639121 10.7519C0.420991 10.6429 0.155783 10.7313 0.0467178 10.9494C-0.0623472 11.1675 0.0260555 11.4327 0.244185 11.5418C0.588683 11.7494 0.893325 12.017 1.14375 12.3317C1.64838 12.9241 2.24078 13.5823 3.38175 13.5823C4.52271 13.5823 5.11507 12.9241 5.61974 12.3317C6.12437 11.7393 6.4535 11.3882 7.19948 11.3882C7.94546 11.3882 8.31848 11.8051 8.77922 12.3317C9.23997 12.8583 9.85433 13.5823 11.0172 13.5823C12.1801 13.5823 12.7505 12.9241 13.2552 12.3317C13.7598 11.7393 14.089 11.3882 14.835 11.3882C15.5809 11.3882 15.9539 11.8051 16.4147 12.3317C16.6704 12.66 16.9736 12.9484 17.3143 13.1874C17.5203 13.3207 17.7953 13.2617 17.9286 13.0557C18.062 12.8497 18.003 12.5747 17.797 12.4414Z" fill="#DDFFDF"/>
<path d="M17.797 9.15024C17.5191 8.9571 17.2746 8.71994 17.0729 8.44814C16.5902 7.89962 15.9759 7.21945 14.835 7.21945C13.694 7.21945 13.1016 7.87766 12.597 8.4701C12.0923 9.06251 11.7632 9.41356 11.0172 9.41356C10.2712 9.41356 9.89822 8.99666 9.43748 8.4701C8.97673 7.94351 8.36236 7.21945 7.19948 7.21945C6.0366 7.21945 5.46616 7.87766 4.96149 8.4701C4.45686 9.06251 4.12773 9.41356 3.38175 9.41356C2.63576 9.41356 2.26275 8.99666 1.802 8.4701C1.48879 8.05644 1.09273 7.7127 0.639121 7.4608C0.420991 7.35174 0.155783 7.44014 0.0467178 7.65827C-0.0623472 7.8764 0.0260555 8.14161 0.244185 8.25067C0.588683 8.4583 0.893325 8.72582 1.14375 9.04054C1.64838 9.63295 2.24078 10.2912 3.38175 10.2912C4.52271 10.2912 5.11507 9.63299 5.61974 9.04054C6.12437 8.44814 6.4535 8.09709 7.19948 8.09709C7.94546 8.09709 8.31848 8.51399 8.77922 9.04054C9.23997 9.56714 9.85433 10.2912 11.0172 10.2912C12.1801 10.2912 12.7505 9.63299 13.2552 9.04054C13.7598 8.44814 14.089 8.09709 14.835 8.09709C15.5809 8.09709 15.9539 8.51399 16.4147 9.04054C16.6704 9.36887 16.9736 9.65726 17.3143 9.89622C17.5203 10.0295 17.7953 9.9706 17.9286 9.76456C18.062 9.55861 18.003 9.28354 17.797 9.15024Z" fill="#DDFFDF"/>
<path d="M17.797 5.63956C17.5191 5.44642 17.2746 5.20927 17.0729 4.93747C16.5902 4.38895 15.9759 3.70877 14.835 3.70877C13.694 3.70877 13.1016 4.36699 12.597 4.95943C12.0923 5.55188 11.7632 5.90288 11.0172 5.90288C10.2712 5.90288 9.89822 5.48598 9.43748 4.95943C8.97673 4.43288 8.36236 3.70877 7.19948 3.70877C6.0366 3.70877 5.46616 4.36699 4.96149 4.95943C4.45686 5.55183 4.12773 5.90288 3.38175 5.90288C2.63576 5.90288 2.26275 5.48598 1.802 4.95943C1.48879 4.54577 1.09273 4.20202 0.639121 3.95013C0.420991 3.84106 0.155783 3.92947 0.0467178 4.1476C-0.0623472 4.36573 0.0260555 4.63093 0.244185 4.74C0.588683 4.94763 0.893325 5.21515 1.14375 5.52987C1.64838 6.12227 2.24078 6.78053 3.38175 6.78053C4.52271 6.78053 5.11507 6.12231 5.61974 5.52987C6.12437 4.93747 6.4535 4.58642 7.19948 4.58642C7.94546 4.58642 8.31848 5.00332 8.77922 5.52987C9.23997 6.05642 9.85433 6.78053 11.0172 6.78053C12.1801 6.78053 12.7505 6.12231 13.2552 5.52987C13.7599 4.93742 14.089 4.58642 14.835 4.58642C15.5809 4.58642 15.9539 5.00332 16.4147 5.52987C16.6704 5.8582 16.9736 6.14659 17.3143 6.38555C17.5203 6.51885 17.7953 6.45993 17.9286 6.25389C18.062 6.04794 18.003 5.77286 17.797 5.63956Z" fill="#DDFFDF"/>
<path d="M0.244358 1.44895C0.588855 1.65658 0.893498 1.9241 1.14392 2.23882C1.64855 2.83122 2.24096 3.48948 3.38192 3.48948C4.52288 3.48948 5.11524 2.83126 5.61991 2.23882C6.12454 1.64642 6.45367 1.29537 7.19965 1.29537C7.94564 1.29537 8.31865 1.71227 8.7794 2.23882C9.24014 2.76541 9.85451 3.48948 11.0174 3.48948C12.1803 3.48948 12.7507 2.83126 13.2554 2.23882C13.76 1.64642 14.0891 1.29537 14.8351 1.29537C15.5811 1.29537 15.9541 1.71227 16.4149 2.23882C16.6706 2.56715 16.9738 2.85554 17.3144 3.09454C17.5204 3.22784 17.7955 3.16887 17.9288 2.96288C18.0621 2.75689 18.0032 2.48181 17.7971 2.34851C17.5192 2.15537 17.2747 1.91822 17.0731 1.64642C16.5904 1.0979 15.976 0.417725 14.8351 0.417725C13.6942 0.417725 13.1018 1.07594 12.5971 1.66838C12.0925 2.26078 11.7633 2.61183 11.0173 2.61183C10.2714 2.61183 9.89835 2.19493 9.43761 1.66838C8.97686 1.14179 8.3625 0.417725 7.19961 0.417725C6.03673 0.417725 5.46629 1.07594 4.96162 1.66838C4.45699 2.26078 4.12786 2.61183 3.38188 2.61183C2.63589 2.61183 2.26296 2.19493 1.80218 1.66834C1.48897 1.25467 1.0929 0.910932 0.639293 0.659036C0.421163 0.549972 0.155955 0.638374 0.04689 0.856504C-0.062175 1.07463 0.0262697 1.33988 0.244358 1.44895Z" fill="#DDFFDF"/>
</svg>
