<svg width="18" height="17" viewBox="0 0 18 17" fill="none" xmlns="http://www.w3.org/2000/svg">
<path d="M8.88224 6.22395C9.05157 6.28668 9.2177 6.13316 9.16156 5.96982C8.77631 4.84859 7.38145 4.43032 6.08476 5.42508C5.40268 5.94839 5.14637 6.05959 5.13991 6.06239C5.58957 6.48699 6.10327 7.91181 7.22436 8.06938C8.45933 8.28085 9.55235 7.13334 8.6581 6.60824C8.06998 6.26294 7.37755 6.06236 6.63532 6.06236C7.41345 5.8967 8.19025 5.96773 8.88224 6.22395Z" fill="#DDFFDF"/>
<path d="M14.4744 5.42499C12.2361 3.70785 10.8086 6.4158 11.6959 6.14737C12.3261 5.95672 13.0151 5.9152 13.7061 6.0623C12.5352 6.0623 11.4559 6.56909 10.7363 7.39398C10.7954 6.09765 10.8848 5.28622 10.9884 4.68262C11.5865 4.6632 12.3837 4.20705 12.8215 3.40886C13.5762 2.13324 13.2262 0.825307 13.1136 0C12.5238 0.542355 9.94777 -0.093142 8.92655 1.5596C8.47545 2.28968 8.60655 3.17809 9.08111 3.82822C9.23133 4.03404 9.59052 3.93529 9.60075 3.68552C9.64533 2.59899 10.2179 1.77808 11.2853 1.3234C10.8063 1.90952 10.4918 2.56573 10.3294 3.24396C10.0768 4.3005 9.81306 4.99356 9.7162 8.36104C9.70636 8.70255 9.99929 8.98524 10.361 8.98095C10.6229 8.97784 10.8472 8.82091 10.9479 8.59261C11.101 8.24538 11.3503 7.88601 11.756 7.55675C12.1414 7.95916 12.728 8.17328 13.335 8.06933C14.4513 7.91244 14.9723 6.48452 15.4194 6.06227C15.4128 6.05954 15.1565 5.94834 14.4744 5.42499Z" fill="#DDFFDF"/>
<path d="M17.7649 9.62084C17.0651 9.17246 16.3035 9.49197 15.9538 9.68269L11.5647 12.7166L8.99474 12.7172L8.35226 12.1104H10.7124C11.4222 12.1104 12.2172 11.6737 12.2172 10.8965C12.2172 10.0714 11.4222 9.68269 10.7124 9.68269H9.82796C9.17094 9.68269 8.40314 9.73803 7.86176 9.46433C7.34742 9.21714 6.75513 9.07647 6.12289 9.07647C5.06123 9.07647 4.11104 9.4762 3.45992 10.1066L0 13.3234L3.85489 16.9642L5.13985 15.1438H11.2119C11.8595 15.1438 12.4846 14.9194 12.9687 14.5133L17.8088 10.4525C18.0779 10.2268 18.0627 9.81171 17.7649 9.62084Z" fill="#DDFFDF"/>
</svg>
